<svg xmlns="http://www.w3.org/2000/svg" viewBox="0 0 268 200">
  <polygon points="0.052 195.74 33.473 195.74 107.193 122.02 107.193 115.447 33.417 41.64 0 41.64 80.548 118.732 0.052 195.74" fill="#1A1A18"/>
  <polygon points="267.276 195.74 233.854 195.74 160.134 122.02 160.134 115.447 233.91 41.64 267.327 41.64 186.78 118.732 267.276 195.74" fill="#1A1A18"/>
  <polygon points="130.35 145.127 79.738 195.74 110.096 195.74 133.639 171.162 157.194 195.74 187.54 195.74 136.937 145.138 130.35 145.127" fill="#1A1A18"/>
  <polygon points="136.937 92.243 187.54 41.64 157.182 41.64 133.639 66.217 110.084 41.64 79.738 41.64 130.35 92.251 136.937 92.243" fill="#1A1A18"/>
</svg>
